<?xml version="1.0" encoding="utf-8"?>
<!-- Generator: Adobe Illustrator 25.0.1, SVG Export Plug-In . SVG Version: 6.00 Build 0)  -->
<svg version="1.1" xmlns="http://www.w3.org/2000/svg" xmlns:xlink="http://www.w3.org/1999/xlink" x="0px" y="0px"
	 viewBox="0 0 110 95.67" style="enable-background:new 0 0 110 95.67;" xml:space="preserve">
<g id="Warstwa_1">
	<g>
		<g>
			<g>
				<path fill="#d2b859" d="M6.49,15.29c0-3.79,0-7.28,0-10.85c0.41-0.03,0.76-0.07,1.1-0.07c20.18,0,40.36,0,60.54,0.02
					c4.44,0.01,8.83,0.33,13.08,1.81c7.47,2.6,12.13,7.74,13.94,15.38c1.07,4.52,0.9,9.11-0.27,13.61
					c-1.62,6.21-5.89,9.95-11.65,12.22c-1.62,0.64-3.3,1.11-5.09,1.71c0.87,1.72,1.74,3.41,2.58,5.11
					c4.06,8.17,8.13,16.34,12.15,24.53c0.39,0.8,0.83,1.06,1.71,1.04c2.59-0.07,5.18-0.02,7.78-0.02c0.43,0,0.86,0,1.38,0
					c0,3.63,0,7.12,0,10.69c-0.29,0.03-0.6,0.08-0.9,0.08c-5.5,0-11.01-0.02-16.51,0.03c-0.8,0.01-1.22-0.26-1.56-0.94
					c-5.31-10.75-10.63-21.5-15.95-32.25c-0.83-1.68-1.71-3.33-2.51-5.02c-0.3-0.64-0.71-0.84-1.4-0.83
					c-2.22,0.04-4.45,0.01-6.73,0.01c0-3.62,0-7.11,0-10.82c0.46,0,0.92,0.01,1.37,0c3.98-0.14,7.98-0.11,11.94-0.48
					c6.37-0.59,10.03-4.32,10.72-10.69c0.51-4.74-0.73-8.88-4.71-11.84c-2-1.49-4.37-2.23-6.82-2.28
					c-5.46-0.11-10.93-0.05-16.39-0.06c-0.19,0-0.38,0.03-0.71,0.06c0,6.92,0,13.79,0,20.73c-3.63,0-7.12,0-10.71,0
					c0-6.9,0-13.78,0-20.86C30.72,15.29,18.64,15.29,6.49,15.29z"/>
				<path fill="#d2b859" d="M42.82,79.78c0-8,0-15.77,0-23.62c3.59,0,7.11,0,10.69,0c0,11.43,0,22.82,0,34.3c-15.67,0-31.31,0-47.03,0
					c0-3.53,0-7.02,0-10.67C18.54,79.78,30.6,79.78,42.82,79.78z"/>
				<path fill="#d2b859" d="M6.48,51.5c0-3.6,0-7.09,0-10.67c10.56,0,21.06,0,31.65,0c0,3.54,0,7.06,0,10.67C27.59,51.5,17.08,51.5,6.48,51.5z"/>
			</g>
		</g>
	</g>
</g>
<g id="Layer_2">
	<g>
	</g>
	<g>
	</g>
	<g>
	</g>
	<g>
	</g>
	<g>
	</g>
	<g>
	</g>
</g>
</svg>
