<svg>
  <path fill="#d2b859" d="M137.24 5.91V4.14c.07 0 .12-.01.18-.01h9.87c.72 0 1.44.05 2.13.29 1.22.42 1.98 1.26 2.27 2.51.18.74.15 1.49-.04 2.22-.26 1.01-.96 1.62-1.9 1.99-.26.1-.54.18-.83.28.14.28.28.56.42.83.66 1.33 1.33 2.66 1.98 4 .06.13.14.17.28.17.42-.01.85 0 1.27 0h.22v1.74c-.05 0-.1.01-.15.01h-2.69c-.13 0-.2-.04-.25-.15-.87-1.75-1.73-3.51-2.6-5.26-.14-.27-.28-.54-.41-.82-.05-.1-.12-.14-.23-.14-.36.01-.73 0-1.1 0v-1.76h.22c.65-.02 1.3-.02 1.95-.08 1.04-.1 1.64-.7 1.75-1.74.08-.77-.12-1.45-.77-1.93-.33-.24-.71-.36-1.11-.37-.89-.02-1.78-.01-2.67-.01-.03 0-.06.01-.11.01V9.3h-1.75V5.9c-1.98.01-3.95.01-5.93.01z"/>
  <path fill="#d2b859" d="M143.16 16.43v-3.85h1.74v5.59h-7.67v-1.74h5.93zm-5.92-4.61v-1.74h5.16v1.74h-5.16z"/>
</svg>