<svg aria-hidden="true" data-prefix="fas" data-icon="event-rulers-icon" xmlns="http://www.w3.org/2000/svg" viewBox="0 0 201.33 179.67">
  <path d="M85 159.47c1.58-.54 3.1-1.01 4.58-1.58.83-.32 1.27-.21 1.68.64 1.82 3.86 3.68 7.7 5.58 11.52.39.78.29 1.19-.46 1.63-1.37.81-2.69 1.71-4.03 2.58-1.25.81-1.25.81-1.93-.47-.11-.21-.23-.41-.4-.68-.81.27-1.61.51-2.38.8-.59.22-.96.12-1.25-.49-1.41-2.95-2.86-5.88-4.26-8.83-.16-.34-.09-.79-.14-1.34-1.83-.42-3.82-.9-5.83-1.32-.23-.05-.61.16-.79.36-3.98 4.39-8.95 5.38-14.52 4.18-2.77-.59-5.42-1.55-8.07-3.16 4.29-3.62 9.13-4.54 14.43-4.27-1.1-.48-2.26-.87-3.3-1.47-2.23-1.3-4.15-1.79-6.64-.05-2.38 1.66-5.44 1.64-8.34.99-3.85-.87-7.16-2.78-10.39-5.41 4.48-2.54 8.99-2.92 13.78-1.9-1.67-1.26-3.33-2.54-5.02-3.77-.17-.13-.55-.12-.76-.02-6.32 2.95-11.62.88-16.47-3.34-1.09-.95-2.07-2.03-3.29-3.23 4.85-1.77 9.26-1.38 13.67.44-1.34-1.5-2.68-3-4.05-4.48-.15-.16-.51-.23-.73-.17-6.89 1.86-11.7-1.35-15.7-6.46-.78-.99-1.42-2.08-2.29-3.36 5.04-.78 9.36.27 13.36 2.96-1.04-1.72-2.07-3.45-3.15-5.15-.12-.2-.51-.35-.76-.33-7.34.61-11.51-3.61-14.55-9.54-.4-.78-.72-1.6-1.06-2.41-.08-.18-.09-.38-.18-.74 5.15-.07 9.18 2.09 12.77 5.54-.59-1.52-1.29-3.01-1.75-4.58-.4-1.36-1.02-1.85-2.53-1.99-3.59-.33-6.45-2.21-8.53-5.16-2.07-2.94-3.25-6.24-3.86-9.97 5.59 1.13 9.43 4.31 12.25 8.92-.47-2.41-.92-4.83-1.43-7.23-.06-.26-.42-.6-.7-.65-5.77-1.18-8.9-4.99-10.28-10.43-.56-2.22-.75-4.53-.92-6.88 5.95 2.07 9.04 6.59 11.1 12.19 0-.35.01-.7 0-1.05-.01-.36-.03-.72-.05-1.08-.09-1.83-.23-3.66-.26-5.49-.02-1.09-.26-1.72-1.44-2.21-5.22-2.17-7.45-6.48-7.9-11.85-.16-1.89.02-3.82.08-5.73.01-.46.18-.91.3-1.51 5.77 3.57 7.83 9.04 8.82 15.21.03-.28.07-.57.09-.85.19-2.78.36-5.57.58-8.35.06-.72 0-1.24-.71-1.69-4.11-2.65-5.86-6.55-5.86-11.35 0-3.06.59-6 1.65-8.87 2.84 1.21 5.23 6.78 5.93 13.74.13-.17.25-.26.28-.38.54-2.25 1.08-4.49 1.58-6.75.08-.37.07-.93-.15-1.16-3.66-3.75-4.25-8.23-3.15-13.09.62-2.74 1.71-5.29 3.31-7.9 2.73 3.8 3.61 7.91 3.5 12.38.86-1.68 1.74-3.35 2.56-5.05.11-.22-.02-.63-.16-.88-2.3-4.08-2.14-8.23-.39-12.43 1.22-2.93 2.98-5.52 5.21-8.08 1.92 4.32 1.91 8.54.93 12.95.89-1.02 1.7-2.13 2.7-3.03 1.04-.93 1.1-1.81.72-3.11-1.23-4.25-.02-8.09 2.32-11.68 1.79-2.73 4.12-4.96 6.6-7.04.14-.12.33-.19.64-.37 1.12 5.89-.77 10.91-3.65 15.77 1.49-1.41 3.62-1.93 4.4-4.3 2.15-6.6 7.01-9.91 13.81-10.56.24-.02.48-.04.72-.03.15.01.3.07.45.1-.76 4.89-4.29 10.23-9.86 11.9-.8.24-1.61.59-2.43.62-2.72.1-4.41 1.97-6.33 3.52 2.34-1.09 4.68-2.05 7.33-2.02 2.68.03 5.08.78 7.38 2.56-.67.47-1.22.9-1.8 1.26-3.13 1.95-6.33 3.73-10.07 4.21-2.61.33-5.16.07-7.66-.79-.32-.11-.88-.13-1.05.06-2.59 2.87-5.21 5.72-6.9 9.26-.03.06 0 .15 0 .41 4.6-5.32 9.87-8 17.01-4.82-.64.66-1.13 1.21-1.67 1.69-3.45 3.11-7.12 5.84-12.01 6.1-1.5.08-3.01-.15-4.52-.2-.34-.01-.9.04-1 .25-1.5 3.11-2.93 6.25-4.21 9.5 3.73-5.37 8.38-8.31 15.56-6.39-1.7 1.98-3.14 3.82-4.75 5.49-3.06 3.16-6.88 4.69-11.26 4.78-.65.01-.92.22-1.06.82-.57 2.39-1.17 4.77-1.65 7.23 1.41-2.1 2.95-4.03 5.19-5.26 2.28-1.25 4.71-1.63 7.39-1.35-.06.33-.07.6-.17.83-1.99 4.36-4.49 8.3-9 10.47-1.14.55-2.4.85-3.59 1.31-.32.13-.79.42-.83.68-.25 2.04-.4 4.08-.47 6.19 2.25-4.34 5.72-6.72 10.79-7.05-1.42 5.87-3.65 10.95-9.18 13.77-1.43.73-1.98 1.43-1.84 3.15.13 1.64.05 2.9.27 4.4 1.62-4.59 4.64-7.46 9.57-8.68-.16 1.38-.25 2.59-.44 3.79-.81 5.21-3.17 9.47-7.68 12.42-.27.18-.57.63-.53.9.44 2.54.94 5.07 1.58 7.61.23-5.61 2.63-9.71 8.09-12.18.05 1.93.2 3.66.11 5.38-.26 4.96-2.15 9.18-5.91 12.51-.21.19-.4.66-.31.89 1.11 2.89 2.27 5.76 3.58 8.61-1.38-6.17-.02-11.27 5.57-15.18.33 1.6.68 2.98.9 4.37.86 5.31-.26 10.13-3.6 14.4-.24.31-.46.95-.31 1.2 1.7 2.78 3.47 5.51 5.43 8.2-2.74-6.09-2.33-11.59 2.6-16.58 1.48 2.92 2.43 5.81 2.78 8.89.41 3.65-.46 7.03-2.14 10.26-.2.38-.3 1.11-.08 1.35 2.38 2.61 4.83 5.15 7.45 7.6-4.23-5.6-5.12-11.29-1.05-17.35.2.08.34.09.39.17 4.22 5.69 6.14 11.84 3.84 18.87-.11.33-.04.95.19 1.11 2.81 2.07 5.67 4.08 8.68 5.97-5.05-4.79-7.03-10.21-3.84-17.25 1.64 1.97 3.2 3.65 4.53 5.49 2.87 3.96 3.85 8.42 3.23 13.26-.03.27.17.74.39.84 2.88 1.33 5.79 2.61 8.82 3.75-5.35-3.85-7.8-8.75-6.21-15.51 2.47 1.51 4.58 3.17 6.47 5.12 3.03 3.11 4.81 6.82 5.29 11.13.09.79.38 1.18 1.19 1.33 1.6.29 3.18.69 4.98 1.09-1.42-7.46.41-13.75 6.2-18.58 3.54-2.95 7.75-4.26 12.35-3.96 5.63.36 10.15 2.88 13.47 7.43 3.3 4.51 4.01 9.59 2.81 15.27 2.28-.51 4.33-.95 6.35-1.47.25-.06.51-.58.54-.91.83-7.51 5.4-12.37 11.42-16.21.06-.04.15-.04.4-.09.89 2.96.69 5.85-.49 8.68-1.17 2.81-3.32 4.8-5.69 6.66.37-.11.75-.17 1.09-.32 2.45-1.05 4.91-2.1 7.34-3.21.35-.16.82-.68.78-.97-1.04-7.29 2.05-12.94 7.03-17.85.22-.21.46-.4.84-.73 3.05 6.78 1.11 12.19-4.09 16.86l.25.2c2.1-1.41 4.16-2.9 6.32-4.2 2-1.21 2.74-2.42 2-5.01-1.73-6.05.58-12.08 4.45-16.9 2.83 2.95 4.96 9.92-1.11 17.35.45-.26.68-.35.84-.5 2.24-2.27 4.49-4.53 6.67-6.86.28-.3.44-1.08.25-1.41-3.16-5.64-2.9-11.37-.51-17.16.29-.69.61-1.37 1-2.24 4.98 5 5.37 10.5 2.43 16.55.14.04.28.08.41.12 1.77-2.77 3.55-5.54 5.27-8.34.14-.22-.1-.81-.32-1.1-2.42-3.16-3.89-6.66-3.89-10.69 0-2.67.31-5.3 1.22-7.85 3.99 2.13 7.29 7.24 5.6 14.85.65-1.45 1.32-2.89 1.93-4.35.52-1.25.96-2.54 1.47-3.79.25-.6.17-.98-.35-1.44-5.25-4.67-6.33-10.71-5.61-17.32l.13-.18c4.33 1.11 7.3 5.66 7.99 11.97.42-2.04.79-4.09 1.29-6.1.35-1.39.1-2.22-1.2-3.11-3.98-2.71-5.96-6.74-6.77-11.4-.22-1.28-.33-2.58-.52-4.12 4.94 1.22 7.97 4.06 9.6 8.66.08-1.21.15-2.41.26-3.61.19-2.27-.43-3.25-2.39-4.26-4.65-2.4-6.76-6.79-8.17-11.58-.16-.53-.26-1.07-.44-1.82 5.04.29 8.49 2.66 10.88 6.96-.19-2.06-.33-4.13-.6-6.18-.04-.28-.68-.59-1.09-.69-6.5-1.63-9.97-6.34-12.44-12.1l.01-.23c3.64-1.41 8.22.93 12.63 6.31-.63-2.62-1.26-5.24-1.9-7.92-3.97-.01-7.54-.96-10.59-3.41-2.38-1.91-4.34-4.18-5.97-6.77 4.43-2.46 9.96-.1 15.23 6.28-.3-.79-.56-1.6-.91-2.38-1.03-2.29-2.06-4.58-3.17-6.83-.15-.3-.74-.62-1.06-.56-5.64 1.06-10.47-.66-14.75-4.25-1.18-.99-2.3-2.06-3.6-3.23 3.17-1.68 6.26-1.93 9.42-.93 3.09.98 5.4 3.12 7.72 5.36-.36-.68-.64-1.43-1.1-2.03-1.82-2.37-3.7-4.69-5.55-7.04-.4-.51-.78-.61-1.43-.39-4.57 1.58-9.04 1.19-13.33-.98-2.08-1.05-4.07-2.29-6.34-3.58 5.09-3.68 9.94-3.24 14.91-.65-1.8-1.31-3.22-3.04-5.67-3.4-6.98-1.03-12.03-6.01-13-12.66.34-.03.67-.1 1-.07 7.06.61 11.93 4.11 14.2 10.93.31.92.73 1.6 1.57 2.12.9.56 1.72 1.26 2.52 1.87-1.06-2.5-2.28-4.94-3.13-7.51-.88-2.62-1.01-5.37-.33-8.47 1.27 1.15 2.42 2.1 3.47 3.14 2.74 2.73 5.07 5.73 6.07 9.57.64 2.45.66 4.9-.22 7.29-.27.75-.14 1.24.4 1.8 1.12 1.16 2.16 2.39 3.33 3.56-1.09-4.35-1.1-8.58.81-12.92 2.73 3.11 4.84 6.35 5.96 10.15 1.04 3.56.74 7.01-1.09 10.29-.17.3-.26.8-.13 1.08.78 1.64 1.64 3.25 2.57 4.88-.18-4.41.68-8.51 3.43-12.39.52.98.98 1.79 1.38 2.62 1.35 2.79 2.26 5.69 2.38 8.82.15 3.61-.97 6.73-3.42 9.39-.24.26-.51.7-.45.98.58 2.5 1.24 4.99 1.95 7.5.18-5.31 1.64-10.08 5.68-13.86.16.17.31.26.36.39 1.3 3.78 2 7.63 1.28 11.63-.65 3.55-2.49 6.33-5.51 8.34-.38.25-.79.84-.77 1.26.14 3.03.38 6.05.59 9.07.01.14.08.28.21.45.88-6.14 2.95-11.57 8.84-15.23.13 2.05.37 3.85.34 5.65-.06 3.35-.69 6.57-2.7 9.39-1.46 2.04-3.38 3.45-5.69 4.4-.39.16-.9.62-.93.98-.21 2.85-.31 5.7-.44 8.3 1.29-2.26 2.5-4.8 4.1-7.07 1.64-2.34 4.04-3.89 7.04-5.09-.14 1.65-.17 3.05-.38 4.43-.59 3.9-1.82 7.51-4.87 10.25a11.568 11.568 0 0 1-5.6 2.79c-.74.15-1.07.41-1.2 1.18-.38 2.27-.87 4.52-1.25 6.47 1.56-1.68 3.17-3.7 5.06-5.38 1.94-1.73 4.37-2.67 7.12-3.19-.46 3.15-1.44 5.93-2.94 8.54-2.32 4.05-5.72 6.44-10.48 6.71-.31.02-.79.18-.88.41a97.8 97.8 0 0 0-2.3 6.16c3.48-3.53 7.52-5.7 12.83-5.69-.46 1.09-.81 2.01-1.23 2.89-1.21 2.5-2.69 4.8-4.78 6.66-2.6 2.32-5.63 3.44-9.11 3.13-1.01-.09-1.57.17-2.05 1.09-.79 1.51-1.75 2.94-2.61 4.53 3.94-2.79 8.26-3.86 13.3-3.09-.76 1.15-1.37 2.16-2.06 3.1-1.7 2.29-3.67 4.31-6.2 5.71-2.93 1.61-6.04 1.96-9.26 1.11-.68-.18-1.08-.09-1.54.45-1.18 1.39-2.44 2.72-3.65 4.2 4.36-1.89 8.77-2.29 13.33-.66-.06.21-.2.43-.28.53-2.83 3.29-5.96 5.96-10.23 7.13-2.9.79-5.79.53-8.51-.8-.68-.33-1.12-.26-1.7.2-1.45 1.16-2.97 2.25-4.45 3.49 4.71-1.07 9.4-.61 13.65 1.76-.04.18-.22.26-.29.32-3.66 2.96-7.64 5.21-12.48 5.46-2.93.15-5.61-.66-7.97-2.39-.66-.48-1.13-.47-1.82-.13-1.98.98-4 1.87-6 2.88 4.06-.29 7.96.16 11.56 2.17.95.53 1.77 1.3 2.73 1.8.44.23.44.23-.01.42-1.68.69-3.31 1.5-5.02 2.09-2.73.94-5.52 1.53-8.45 1.22-3.48-.37-6.44-1.75-8.77-4.37-.46-.52-.86-.64-1.55-.47-1.96.5-3.96.89-5.82 1.3-.22.68-.37 1.35-.66 1.95-1.24 2.63-2.56 5.23-3.78 7.87-.39.84-.8.98-1.67.68-1.41-.48-1.41-.48-2.09-.7-1.14 1.89-1.14 1.89-2.98.73-1.18-.75-2.34-1.53-3.53-2.25-.58-.35-.74-.7-.41-1.36 1.94-3.93 3.85-7.88 5.74-11.84.33-.69.72-.82 1.41-.57 1.56.57 3.14 1.08 4.71 1.61 1.32-4.33-1.31-10.68-5.68-13.94-5.02-3.75-11.71-3.92-17.05-.44-4.67 3.05-7.54 9.4-6.36 14.42z"/>
  <path d="M54.15 48.62V37.77c.41-.03.76-.07 1.1-.07 20.18 0 40.36 0 60.54.02 4.44.01 8.83.33 13.08 1.81 7.47 2.6 12.13 7.74 13.94 15.38 1.07 4.52.9 9.11-.27 13.61-1.62 6.21-5.89 9.95-11.65 12.22-1.62.64-3.3 1.11-5.09 1.71.87 1.72 1.74 3.41 2.58 5.11 4.06 8.17 8.13 16.34 12.15 24.53.39.8.83 1.06 1.71 1.04 2.59-.07 5.18-.02 7.78-.02h1.38v10.69c-.29.03-.6.08-.9.08-5.5 0-11.01-.02-16.51.03-.8.01-1.22-.26-1.56-.94-5.31-10.75-10.63-21.5-15.95-32.25-.83-1.68-1.71-3.33-2.51-5.02-.3-.64-.71-.84-1.4-.83-2.22.04-4.45.01-6.73.01V74.06c.46 0 .92.01 1.37 0 3.98-.14 7.98-.11 11.94-.48 6.37-.59 10.03-4.32 10.72-10.69.51-4.74-.73-8.88-4.71-11.84-2-1.49-4.37-2.23-6.82-2.28-5.46-.11-10.93-.05-16.39-.06-.19 0-.38.03-.71.06V69.5H90.53V48.64c-12.15-.02-24.22-.02-36.38-.02z"/>
  <path d="M90.49 113.12V89.5h10.69v34.3H54.15v-10.67c12.06-.01 24.12-.01 36.34-.01zM54.14 84.83V74.16h31.65v10.67H54.14z"/>
</svg>
